<?xml version="1.0" encoding="UTF-8" standalone="no"?>
<!DOCTYPE svg PUBLIC "-//W3C//DTD SVG 1.1//EN" "http://www.w3.org/Graphics/SVG/1.1/DTD/svg11.dtd">
<svg width="100%" height="100%" viewBox="0 0 1006 1006" version="1.1" xmlns="http://www.w3.org/2000/svg" xmlns:xlink="http://www.w3.org/1999/xlink" xml:space="preserve" xmlns:serif="http://www.serif.com/" style="fill-rule:evenodd;clip-rule:evenodd;stroke-linejoin:round;stroke-miterlimit:2;">
    <g transform="matrix(2.66667,0,0,2.66667,0,-1551.48)">
        <g id="logo-box-icon" transform="matrix(0.259019,0,0,0.994901,-95.7972,-210.461)">
            <rect x="369.847" y="796.327" width="1455.5" height="378.932" style="fill:none;"/>
            <g transform="matrix(3.56233,0,0,0.927437,-965.42,58.355)">
                <g id="logo-and-text">
                    <g>
                        <path d="M714.216,864.899L646.101,846.661L596.244,896.517L602.903,921.445L641.073,931.682L661.163,911.591L667.534,917.962L647.443,938.053L657.67,976.212L682.609,982.881L732.464,933.025L714.216,864.899Z" style="fill:#232323;"/>
                        <path d="M714.227,1135.08L732.464,1066.98L682.619,1017.12L657.68,1023.8L647.443,1061.97L667.534,1082.06L661.163,1088.43L641.062,1068.33L602.925,1078.56L596.244,1103.48L646.101,1153.34L714.227,1135.08Z" style="fill:#232323;"/>
                        <path d="M444.035,1135.1L512.138,1153.34L562.006,1103.48L555.337,1078.54L517.179,1068.32L497.066,1088.43L490.695,1082.06L510.808,1061.95L500.57,1023.78L475.642,1017.12L425.786,1066.98L444.035,1135.1Z" style="fill:#232323;"/>
                        <path d="M444.014,864.91L425.776,933.025L475.631,982.881L500.57,976.212L510.787,938.053L490.695,917.962L497.066,911.591L517.158,931.682L555.337,921.445L561.996,896.517L512.138,846.661L444.014,864.91Z" style="fill:#232323;"/>
                        <path d="M664.349,899.799C672.626,899.799 679.328,906.499 679.328,914.776C679.328,923.053 672.626,929.755 664.349,929.755C656.072,929.755 649.371,923.053 649.371,914.776C649.371,906.499 656.072,899.799 664.349,899.799Z" style="fill:white;"/>
                        <path d="M493.88,899.799C502.158,899.799 508.858,906.499 508.858,914.776C508.858,923.053 502.158,929.755 493.88,929.755C485.603,929.755 478.902,923.053 478.902,914.776C478.902,906.499 485.603,899.799 493.88,899.799Z" style="fill:white;"/>
                        <path d="M664.349,1070.26C672.626,1070.26 679.328,1076.96 679.328,1085.23C679.328,1093.51 672.626,1100.21 664.349,1100.21C656.072,1100.21 649.371,1093.51 649.371,1085.23C649.371,1076.96 656.072,1070.26 664.349,1070.26Z" style="fill:white;"/>
                        <path d="M493.88,1070.26C502.158,1070.26 508.858,1076.96 508.858,1085.23C508.858,1093.51 502.158,1100.21 493.88,1100.21C485.603,1100.21 478.902,1093.51 478.902,1085.23C478.902,1076.96 485.603,1070.26 493.88,1070.26Z" style="fill:white;"/>
                        <path d="M527.012,1000L540.05,977.427L553.057,954.864L605.183,954.864L618.201,977.427L631.24,1000L618.201,1022.56L605.183,1045.12L579.136,1045.14L553.057,1045.13L540.05,1022.56L527.012,1000ZM579.125,985.022C587.403,985.022 594.103,991.723 594.103,1000C594.103,1008.28 587.403,1014.98 579.125,1014.98C570.848,1014.98 564.148,1008.28 564.148,1000C564.148,991.723 570.848,985.022 579.125,985.022Z" style="fill:#232323;"/>
                    </g>
                </g>
            </g>
        </g>
    </g>
</svg>
