<?xml version="1.0" encoding="UTF-8" standalone="no"?>
<!DOCTYPE svg PUBLIC "-//W3C//DTD SVG 1.1//EN" "http://www.w3.org/Graphics/SVG/1.1/DTD/svg11.dtd">
<svg width="100%" height="100%" viewBox="0 0 2911 758" version="1.1" xmlns="http://www.w3.org/2000/svg" xmlns:xlink="http://www.w3.org/1999/xlink" xml:space="preserve" xmlns:serif="http://www.serif.com/" style="fill-rule:evenodd;clip-rule:evenodd;stroke-linejoin:round;stroke-miterlimit:2;">
    <g transform="matrix(2,0,0,2,0,0)">
        <g id="logo-box" transform="matrix(1,0,0,1,-369.847,-796.327)">
            <rect x="369.847" y="796.327" width="1455.5" height="378.932" style="fill:none;"/>
            <clipPath id="_clip1">
                <rect x="369.847" y="796.327" width="1455.5" height="378.932"/>
            </clipPath>
            <g clip-path="url(#_clip1)">
                <g transform="matrix(1,0,0,1,0.846854,0.326573)">
                    <rect x="0" y="0" width="2000" height="2000" style="fill:none;"/>
                    <g id="logo-and-text">
                        <g transform="matrix(1,0,0,1,-112.479,-66.7567)">
                            <g transform="matrix(320,0,0,320,880.039,1160.66)">
                                <path d="M0.614,-0.021C0.605,-0.012 0.591,-0.005 0.574,0.001C0.556,0.006 0.535,0.008 0.51,0.008C0.485,0.008 0.462,0.004 0.44,-0.003C0.418,-0.01 0.4,-0.028 0.386,-0.056L0.287,-0.258C0.277,-0.279 0.268,-0.298 0.26,-0.317C0.252,-0.335 0.243,-0.356 0.234,-0.38L0.228,-0.379C0.231,-0.343 0.232,-0.306 0.233,-0.269C0.233,-0.232 0.233,-0.195 0.233,-0.159L0.233,-0.004C0.226,-0.002 0.215,0 0.2,0.002C0.185,0.004 0.17,0.005 0.155,0.005C0.14,0.005 0.127,0.004 0.116,0.002C0.105,0 0.095,-0.004 0.088,-0.01C0.081,-0.016 0.075,-0.024 0.071,-0.035C0.067,-0.045 0.065,-0.058 0.065,-0.075L0.065,-0.575C0.074,-0.588 0.089,-0.598 0.108,-0.605C0.127,-0.612 0.148,-0.615 0.17,-0.615C0.195,-0.615 0.218,-0.611 0.241,-0.604C0.263,-0.596 0.281,-0.578 0.294,-0.551L0.394,-0.349C0.404,-0.328 0.413,-0.309 0.421,-0.291C0.429,-0.272 0.438,-0.251 0.447,-0.227L0.452,-0.228C0.449,-0.264 0.448,-0.3 0.447,-0.336C0.446,-0.372 0.446,-0.408 0.446,-0.444L0.446,-0.606C0.453,-0.608 0.464,-0.61 0.48,-0.612C0.495,-0.614 0.509,-0.615 0.524,-0.615C0.553,-0.615 0.576,-0.61 0.591,-0.6C0.606,-0.589 0.614,-0.568 0.614,-0.535L0.614,-0.021Z" style="fill:#ffffff;fill-rule:nonzero;"/>
                            </g>
                            <g transform="matrix(320,0,0,320,1097.32,1160.66)">
                                <path d="M0.065,-0.513C0.065,-0.542 0.073,-0.564 0.09,-0.581C0.107,-0.598 0.129,-0.606 0.158,-0.606L0.488,-0.606C0.493,-0.599 0.497,-0.589 0.501,-0.577C0.504,-0.565 0.506,-0.552 0.506,-0.539C0.506,-0.514 0.501,-0.496 0.49,-0.485C0.478,-0.474 0.464,-0.469 0.446,-0.469L0.235,-0.469L0.235,-0.376L0.46,-0.376C0.465,-0.369 0.469,-0.359 0.473,-0.348C0.476,-0.336 0.478,-0.323 0.478,-0.31C0.478,-0.285 0.473,-0.267 0.462,-0.256C0.451,-0.245 0.437,-0.24 0.419,-0.24L0.235,-0.24L0.235,-0.135L0.492,-0.135C0.497,-0.128 0.501,-0.118 0.505,-0.106C0.508,-0.094 0.51,-0.081 0.51,-0.068C0.51,-0.043 0.505,-0.024 0.494,-0.014C0.483,-0.003 0.468,0.003 0.45,0.003L0.158,0.003C0.129,0.003 0.107,-0.005 0.09,-0.022C0.073,-0.039 0.065,-0.061 0.065,-0.09L0.065,-0.513Z" style="fill:#ffffff;fill-rule:nonzero;"/>
                            </g>
                            <g transform="matrix(320,0,0,320,1275.88,1160.66)">
                                <path d="M0.023,-0.532C0.026,-0.541 0.031,-0.551 0.037,-0.56C0.043,-0.569 0.05,-0.578 0.06,-0.586C0.068,-0.593 0.079,-0.6 0.091,-0.605C0.103,-0.61 0.116,-0.612 0.131,-0.612C0.15,-0.612 0.167,-0.607 0.182,-0.598C0.197,-0.588 0.212,-0.571 0.227,-0.548L0.305,-0.429L0.42,-0.599C0.425,-0.602 0.433,-0.604 0.443,-0.607C0.452,-0.609 0.462,-0.61 0.471,-0.61C0.502,-0.61 0.526,-0.603 0.543,-0.588C0.56,-0.573 0.569,-0.555 0.569,-0.534C0.569,-0.515 0.564,-0.499 0.555,-0.484C0.545,-0.469 0.532,-0.452 0.515,-0.431L0.412,-0.305L0.575,-0.072C0.57,-0.047 0.558,-0.028 0.541,-0.014C0.523,0.001 0.499,0.008 0.469,0.008C0.45,0.008 0.433,0.003 0.419,-0.007C0.405,-0.016 0.391,-0.033 0.376,-0.056L0.295,-0.184L0.169,0.006C0.164,0.007 0.159,0.007 0.154,0.008C0.149,0.008 0.145,0.008 0.14,0.008C0.102,0.008 0.074,0 0.056,-0.015C0.038,-0.03 0.029,-0.049 0.029,-0.072C0.029,-0.091 0.033,-0.108 0.042,-0.123C0.05,-0.137 0.062,-0.154 0.077,-0.173L0.182,-0.308L0.023,-0.532Z" style="fill:#ffffff;fill-rule:nonzero;"/>
                            </g>
                            <g transform="matrix(320,0,0,320,1468.2,1160.66)">
                                <path d="M0.602,-0.224C0.602,-0.188 0.596,-0.155 0.584,-0.126C0.571,-0.096 0.553,-0.071 0.53,-0.05C0.507,-0.029 0.478,-0.012 0.445,-0.001C0.412,0.01 0.374,0.016 0.332,0.016C0.29,0.016 0.252,0.01 0.219,-0.001C0.186,-0.012 0.157,-0.029 0.134,-0.05C0.111,-0.071 0.093,-0.096 0.081,-0.126C0.068,-0.155 0.062,-0.188 0.062,-0.224L0.062,-0.606C0.069,-0.607 0.081,-0.609 0.097,-0.612C0.113,-0.614 0.128,-0.615 0.143,-0.615C0.158,-0.615 0.172,-0.614 0.184,-0.612C0.195,-0.609 0.205,-0.605 0.213,-0.599C0.221,-0.593 0.227,-0.585 0.231,-0.574C0.235,-0.563 0.237,-0.549 0.237,-0.532L0.237,-0.227C0.237,-0.195 0.246,-0.17 0.264,-0.152C0.281,-0.134 0.304,-0.125 0.332,-0.125C0.361,-0.125 0.384,-0.134 0.401,-0.152C0.418,-0.17 0.427,-0.195 0.427,-0.227L0.427,-0.606C0.434,-0.607 0.446,-0.609 0.462,-0.612C0.478,-0.614 0.493,-0.615 0.508,-0.615C0.523,-0.615 0.537,-0.614 0.549,-0.612C0.56,-0.609 0.57,-0.605 0.578,-0.599C0.586,-0.593 0.592,-0.585 0.596,-0.574C0.6,-0.563 0.602,-0.549 0.602,-0.532L0.602,-0.224Z" style="fill:#ffffff;fill-rule:nonzero;"/>
                            </g>
                            <g transform="matrix(320,0,0,320,1680.68,1160.66)">
                                <path d="M0.237,-0.241C0.208,-0.251 0.181,-0.261 0.157,-0.272C0.133,-0.282 0.112,-0.294 0.095,-0.309C0.078,-0.324 0.064,-0.341 0.055,-0.362C0.045,-0.382 0.04,-0.407 0.04,-0.436C0.04,-0.493 0.062,-0.538 0.106,-0.572C0.149,-0.606 0.21,-0.623 0.289,-0.623C0.318,-0.623 0.344,-0.621 0.369,-0.617C0.394,-0.613 0.415,-0.607 0.433,-0.599C0.45,-0.59 0.464,-0.58 0.474,-0.567C0.484,-0.554 0.489,-0.538 0.489,-0.521C0.489,-0.504 0.485,-0.489 0.477,-0.477C0.469,-0.464 0.459,-0.454 0.448,-0.445C0.433,-0.454 0.414,-0.463 0.389,-0.47C0.364,-0.476 0.337,-0.48 0.308,-0.48C0.278,-0.48 0.256,-0.476 0.242,-0.468C0.228,-0.459 0.221,-0.449 0.221,-0.436C0.221,-0.426 0.225,-0.418 0.234,-0.412C0.243,-0.405 0.256,-0.399 0.273,-0.394L0.326,-0.377C0.389,-0.357 0.437,-0.332 0.471,-0.301C0.504,-0.27 0.521,-0.227 0.521,-0.174C0.521,-0.117 0.499,-0.071 0.454,-0.037C0.409,-0.001 0.344,0.016 0.257,0.016C0.226,0.016 0.198,0.014 0.172,0.009C0.145,0.004 0.122,-0.004 0.103,-0.014C0.083,-0.023 0.067,-0.035 0.057,-0.05C0.046,-0.064 0.04,-0.08 0.04,-0.099C0.04,-0.118 0.046,-0.135 0.057,-0.149C0.068,-0.162 0.081,-0.173 0.094,-0.18C0.113,-0.165 0.135,-0.153 0.163,-0.142C0.19,-0.131 0.219,-0.126 0.251,-0.126C0.284,-0.126 0.307,-0.131 0.32,-0.141C0.333,-0.151 0.34,-0.163 0.34,-0.176C0.34,-0.189 0.335,-0.2 0.324,-0.207C0.313,-0.214 0.298,-0.22 0.279,-0.227L0.237,-0.241Z" style="fill:#ffffff;fill-rule:nonzero;"/>
                            </g>
                        </g>
                        <g transform="matrix(0.922708,0,0,0.922708,24.1341,65.4394)">
                            <path d="M714.216,864.899L646.101,846.661L596.244,896.517L602.903,921.445L641.073,931.682L661.163,911.591L667.534,917.962L647.443,938.053L657.67,976.212L682.609,982.881L732.464,933.025L714.216,864.899Z" style="fill:#ffffff;"/>
                            <path d="M714.227,1135.08L732.464,1066.98L682.619,1017.12L657.68,1023.8L647.443,1061.97L667.534,1082.06L661.163,1088.43L641.062,1068.33L602.925,1078.56L596.244,1103.48L646.101,1153.34L714.227,1135.08Z" style="fill:#ffffff;"/>
                            <path d="M444.035,1135.1L512.138,1153.34L562.006,1103.48L555.337,1078.54L517.179,1068.32L497.066,1088.43L490.695,1082.06L510.808,1061.95L500.57,1023.78L475.642,1017.12L425.786,1066.98L444.035,1135.1Z" style="fill:#ffffff;"/>
                            <path d="M444.014,864.91L425.776,933.025L475.631,982.881L500.57,976.212L510.787,938.053L490.695,917.962L497.066,911.591L517.158,931.682L555.337,921.445L561.996,896.517L512.138,846.661L444.014,864.91Z" style="fill:#ffffff;"/>
                            <path d="M664.349,899.799C672.626,899.799 679.328,906.499 679.328,914.776C679.328,923.053 672.626,929.755 664.349,929.755C656.072,929.755 649.371,923.053 649.371,914.776C649.371,906.499 656.072,899.799 664.349,899.799Z" style="fill:white;"/>
                            <path d="M493.88,899.799C502.158,899.799 508.858,906.499 508.858,914.776C508.858,923.053 502.158,929.755 493.88,929.755C485.603,929.755 478.902,923.053 478.902,914.776C478.902,906.499 485.603,899.799 493.88,899.799Z" style="fill:white;"/>
                            <path d="M664.349,1070.26C672.626,1070.26 679.328,1076.96 679.328,1085.23C679.328,1093.51 672.626,1100.21 664.349,1100.21C656.072,1100.21 649.371,1093.51 649.371,1085.23C649.371,1076.96 656.072,1070.26 664.349,1070.26Z" style="fill:white;"/>
                            <path d="M493.88,1070.26C502.158,1070.26 508.858,1076.96 508.858,1085.23C508.858,1093.51 502.158,1100.21 493.88,1100.21C485.603,1100.21 478.902,1093.51 478.902,1085.23C478.902,1076.96 485.603,1070.26 493.88,1070.26Z" style="fill:white;"/>
                            <path d="M527.012,1000L540.05,977.427L553.057,954.864L605.183,954.864L618.201,977.427L631.24,1000L618.201,1022.56L605.183,1045.12L579.136,1045.14L553.057,1045.13L540.05,1022.56L527.012,1000ZM579.125,985.022C587.403,985.022 594.103,991.723 594.103,1000C594.103,1008.28 587.403,1014.98 579.125,1014.98C570.848,1014.98 564.148,1008.28 564.148,1000C564.148,991.723 570.848,985.022 579.125,985.022Z" style="fill:#ffffff;"/>
                        </g>
                    </g>
                </g>
            </g>
        </g>
    </g>
</svg>
